<svg xmlns="http://www.w3.org/2000/svg" width="30" height="30" viewBox="0 0 30 30">
  <g id="icon_newsletter" transform="translate(0 0)" opacity="0.3">
    <path id="Path_279" data-name="Path 279" d="M28.751,30H1.249A1.23,1.23,0,0,1,0,28.786v-17.7a1.211,1.211,0,0,1,.545-.935L6.016,6.514V1.193A1.209,1.209,0,0,1,7.24,0H22.76a1.209,1.209,0,0,1,1.225,1.192V6.511l5.471,3.632a1.206,1.206,0,0,1,.545.941v17.7A1.23,1.23,0,0,1,28.751,30ZM6.016,9.456,3.465,11.149l2.551,1.693ZM21.536,14.4V2.385H8.464V14.4c0,.021,0,.041,0,.062L15,18.806l6.539-4.34C21.538,14.445,21.536,14.424,21.536,14.4Zm2.449-4.947v3.386l2.551-1.693Zm3.518,4L15.7,21.285a1.275,1.275,0,0,1-1.408,0L2.5,13.456V27.571h25Zm-16.741.015a1.209,1.209,0,0,1,1.224-1.192h6.22a1.193,1.193,0,1,1,0,2.385h-6.22A1.209,1.209,0,0,1,10.761,13.471Zm7.246-2.936h-6a1.341,1.341,0,0,1-1.359-1.323V5.653A1.341,1.341,0,0,1,12.011,4.33h6a1.341,1.341,0,0,1,1.359,1.323V9.212A1.341,1.341,0,0,1,18.008,10.535Zm-1.09-3.69a.132.132,0,0,0-.134-.13H13.235a.132.132,0,0,0-.134.13V8.02a.132.132,0,0,0,.134.13h3.549a.132.132,0,0,0,.134-.13Z" transform="translate(0 -0.001)" fill="#63717a" fill-rule="evenodd"/>
  </g>
</svg>
