<svg xmlns="http://www.w3.org/2000/svg" width="30" height="30" viewBox="0 0 30 30">
  <g id="icon_whatsapp_color" transform="translate(0 0)" opacity="0.3">
    <path id="Path_449" data-name="Path 449" d="M105.91,230.5A14.953,14.953,0,0,0,91,245.38,15.44,15.44,0,0,0,93.036,253L91,260.5l7.665-2.04a14.706,14.706,0,0,0,7.305,2.04A15.263,15.263,0,0,0,121,245.38,15.108,15.108,0,0,0,105.91,230.5Zm.06,27.42A12.186,12.186,0,0,1,99.5,256l-.479-.24-4.431,1.14,1.2-4.32-.3-.48a12.485,12.485,0,0,1-1.916-6.66,12.4,12.4,0,0,1,24.79,0A12.523,12.523,0,0,1,105.97,257.92Z" transform="translate(-91 -230.5)" fill="#63717a"/>
    <path id="Path_450" data-name="Path 450" d="M106.961,243.76,106,243.7a1.429,1.429,0,0,0-.838.3,4.11,4.11,0,0,0-1.437,2.22,6.621,6.621,0,0,0,1.557,5.28,15.844,15.844,0,0,0,8.443,6.18,4.126,4.126,0,0,0,3.533-.42,2.959,2.959,0,0,0,1.317-1.98l.18-.72a.485.485,0,0,0-.24-.54l-3.234-1.5a.427.427,0,0,0-.6.18l-1.317,1.68a.37.37,0,0,1-.419.12,10.008,10.008,0,0,1-5.449-4.68.356.356,0,0,1,.06-.42l1.257-1.38a.613.613,0,0,0,.12-.54l-1.5-3.36a.455.455,0,0,0-.479-.36" transform="translate(-96.063 -235.78)" fill="#63717a"/>
  </g>
</svg>
